<svg version="1.1"
	 width="25px" height="25px" viewBox="0 0 32 32">
<style type="text/css">
	.sketchy_een{fill:#111918;}
</style>
<path class="sketchy_een" d="M29.754,9.152c-0.06-0.059-0.134-0.099-0.208-0.138c-0.01-0.011-0.014-0.026-0.025-0.037
	c-0.311-0.305-0.62-0.609-0.932-0.912c-0.305-0.297-0.64-0.559-0.959-0.841C27.299,6.933,27,6.61,26.692,6.297
	c-0.336-0.339-0.674-0.673-1.016-1.004c-0.042-0.137-0.104-0.267-0.206-0.369c-0.163-0.162-0.386-0.256-0.618-0.256
	c-0.207,0-0.481,0.085-0.616,0.256c-0.54,0.689-1.107,1.351-1.735,1.96c-0.589,0.569-1.16,1.158-1.729,1.749
	c-0.567,0.589-1.138,1.176-1.708,1.761c-0.575,0.591-1.125,1.203-1.684,1.808c-0.368,0.398-0.733,0.798-1.113,1.184
	c-0.384,0.392-0.788,0.76-1.174,1.15c-0.374,0.38-0.729,0.774-1.083,1.172c-0.247,0.277-0.51,0.535-0.771,0.796
	c-0.364-0.337-0.722-0.677-1.07-1.032c-0.445-0.455-0.922-0.884-1.392-1.312c-0.463-0.423-0.92-0.849-1.365-1.292
	c-0.432-0.429-0.866-0.853-1.301-1.276c-0.039-0.125-0.097-0.243-0.193-0.339c-0.161-0.162-0.374-0.241-0.586-0.241
	c-0.119,0-0.235,0.03-0.346,0.079c-0.152,0.036-0.298,0.098-0.416,0.216c-0.088,0.089-0.15,0.195-0.193,0.308
	c-0.22,0.224-0.44,0.448-0.663,0.669c-0.341,0.339-0.703,0.658-1.06,0.981c-0.764,0.688-1.516,1.385-2.23,2.123
	c-0.055,0.035-0.115,0.059-0.162,0.106c-0.349,0.349-0.347,0.93,0,1.28c0.711,0.717,1.414,1.442,2.137,2.149
	c0.662,0.648,1.322,1.302,1.964,1.973c1.255,1.314,2.543,2.6,3.837,3.876c0.329,0.325,0.656,0.652,0.979,0.981
	c0.349,0.356,0.683,0.729,1.04,1.075c0.146,0.142,0.332,0.212,0.521,0.233c0.22,0.213,0.535,0.332,0.837,0.23
	c0.492-0.167,0.867-0.644,1.213-1.016c0.284-0.309,0.571-0.615,0.855-0.924c0.561-0.609,1.115-1.227,1.682-1.83
	c1.16-1.231,2.324-2.458,3.478-3.695c1.215-1.302,2.395-2.637,3.6-3.949c0.565-0.615,1.16-1.205,1.743-1.804
	c0.63-0.644,1.274-1.272,1.907-1.911c0.585-0.593,1.16-1.188,1.698-1.824C29.902,10.163,30,9.982,30,9.745
	C30,9.523,29.911,9.308,29.754,9.152z M24.915,13.027c-0.613,0.63-1.241,1.247-1.842,1.889c-0.603,0.644-1.207,1.288-1.8,1.938
	c-1.162,1.274-2.346,2.523-3.543,3.76c-0.593,0.611-1.168,1.241-1.759,1.853c-0.573,0.591-1.117,1.205-1.676,1.806
	c-0.348,0.375-0.698,0.757-1.07,1.112c-0.232-0.237-0.459-0.478-0.693-0.713c-0.288-0.292-0.581-0.583-0.874-0.871
	c-0.64-0.632-1.282-1.26-1.905-1.906c-0.63-0.656-1.286-1.286-1.918-1.94c-0.624-0.646-1.259-1.278-1.887-1.92
	c-0.633-0.649-1.247-1.315-1.871-1.973c0.54-0.556,1.09-1.103,1.671-1.618c0.368-0.325,0.735-0.65,1.105-0.973
	c0.117-0.103,0.227-0.214,0.338-0.322c0.78,0.742,1.564,1.482,2.37,2.197c0.473,0.42,0.945,0.845,1.396,1.292
	c0.453,0.453,0.916,0.896,1.375,1.343c0.261,0.253,0.646,0.303,0.96,0.156c0.233,0.038,0.48-0.015,0.65-0.195
	c0.276-0.292,0.561-0.577,0.829-0.874c0.262-0.29,0.518-0.585,0.78-0.875c0.538-0.599,1.154-1.121,1.725-1.688
	c0.587-0.581,1.156-1.184,1.721-1.786c0.563-0.599,1.142-1.186,1.729-1.763c0.772-0.764,1.536-1.536,2.318-2.289
	c0.394-0.38,0.804-0.746,1.192-1.132c0.186-0.185,0.348-0.392,0.525-0.586c0.208,0.195,0.416,0.391,0.625,0.585
	C25.7,7.829,26.009,8.131,26.34,8.41c0.335,0.282,0.681,0.553,1.004,0.849c0.207,0.188,0.403,0.388,0.602,0.585
	c-0.406,0.464-0.807,0.933-1.235,1.379C26.124,11.835,25.509,12.42,24.915,13.027z"/>
</svg>